<svg xmlns="http://www.w3.org/2000/svg" viewBox="0 0 800 340" font-family="system-ui, -apple-system, Segoe UI, Roboto, sans-serif" font-size="13">
<text x="400" y="26" text-anchor="middle" font-size="15" font-weight="600" fill="#64748b">Full VK context (libvulkan transient) — macOS</text>
<rect x="200" y="36" width="14" height="12" fill="#94a3b8"/><text x="220" y="46" fill="#64748b">unpatched</text><rect x="310" y="36" width="14" height="12" fill="#10b981"/><text x="330" y="46" fill="#64748b">patched</text>
<line x1="200.0" y1="64" x2="200.0" y2="306" stroke="#cbd5e1" stroke-width="1"/>
<text x="200.0" y="322" text-anchor="middle" fill="#64748b" font-size="11">1,000µs</text>
<line x1="760.0" y1="64" x2="760.0" y2="306" stroke="#cbd5e1" stroke-width="1"/>
<text x="760.0" y="322" text-anchor="middle" fill="#64748b" font-size="11">10,000µs</text>
<text x="190" y="92" text-anchor="end" fill="#64748b">Gloam (enabled-list)</text>
<rect x="200" y="76" width="157.7" height="12" fill="#94a3b8"/>
<text x="362.7" y="86" fill="#64748b" font-size="11">1,912.9µs</text>
<rect x="200" y="92" width="184.2" height="12" fill="#10b981"/>
<text x="389.2" y="102" fill="#64748b" font-size="11">2,132.4µs</text>
<text x="190" y="138" text-anchor="end" fill="#64748b">Volk</text>
<rect x="200" y="122" width="204.5" height="12" fill="#94a3b8"/>
<text x="409.5" y="132" fill="#64748b" font-size="11">2,318.8µs</text>
<rect x="200" y="138" width="187.5" height="12" fill="#10b981"/>
<text x="392.5" y="148" fill="#64748b" font-size="11">2,161.8µs</text>
<text x="190" y="184" text-anchor="end" fill="#64748b">GLAD (tycho)</text>
<rect x="200" y="168" width="201.9" height="12" fill="#94a3b8"/>
<text x="406.9" y="178" fill="#64748b" font-size="11">2,293.8µs</text>
<rect x="200" y="184" width="188.5" height="12" fill="#10b981"/>
<text x="393.5" y="194" fill="#64748b" font-size="11">2,170.9µs</text>
<text x="190" y="230" text-anchor="end" fill="#64748b">Gloam (discover)</text>
<rect x="200" y="214" width="202.2" height="12" fill="#94a3b8"/>
<text x="407.2" y="224" fill="#64748b" font-size="11">2,296.8µs</text>
<rect x="200" y="230" width="189.1" height="12" fill="#10b981"/>
<text x="394.1" y="240" fill="#64748b" font-size="11">2,176.5µs</text>
<text x="190" y="276" text-anchor="end" fill="#64748b">GLAD (dav1dde)</text>
<rect x="200" y="260" width="332.5" height="12" fill="#94a3b8"/>
<text x="537.5" y="270" fill="#64748b" font-size="11">3,923.7µs</text>
<rect x="200" y="276" width="286.6" height="12" fill="#10b981"/>
<text x="491.6" y="286" fill="#64748b" font-size="11">3,248.9µs</text>
</svg>
