<svg xmlns="http://www.w3.org/2000/svg" viewBox="0 0 800 340" font-family="system-ui, -apple-system, Segoe UI, Roboto, sans-serif" font-size="13">
<text x="400" y="26" text-anchor="middle" font-size="15" font-weight="600" fill="#64748b">Full VK context (libvulkan persistent) — macOS</text>
<rect x="200" y="36" width="14" height="12" fill="#94a3b8"/><text x="220" y="46" fill="#64748b">unpatched</text><rect x="310" y="36" width="14" height="12" fill="#10b981"/><text x="330" y="46" fill="#64748b">patched</text>
<line x1="200.0" y1="64" x2="200.0" y2="306" stroke="#cbd5e1" stroke-width="1"/>
<text x="200.0" y="322" text-anchor="middle" fill="#64748b" font-size="11">1,000µs</text>
<line x1="760.0" y1="64" x2="760.0" y2="306" stroke="#cbd5e1" stroke-width="1"/>
<text x="760.0" y="322" text-anchor="middle" fill="#64748b" font-size="11">10,000µs</text>
<text x="190" y="92" text-anchor="end" fill="#64748b">Volk</text>
<rect x="200" y="76" width="167.7" height="12" fill="#94a3b8"/>
<text x="372.7" y="86" fill="#64748b" font-size="11">1,992.5µs</text>
<rect x="200" y="92" width="66.3" height="12" fill="#10b981"/>
<text x="271.3" y="102" fill="#64748b" font-size="11">1,313.6µs</text>
<text x="190" y="138" text-anchor="end" fill="#64748b">Gloam (enabled-list)</text>
<rect x="200" y="122" width="118.8" height="12" fill="#94a3b8"/>
<text x="323.8" y="132" fill="#64748b" font-size="11">1,630.1µs</text>
<rect x="200" y="138" width="76.8" height="12" fill="#10b981"/>
<text x="281.8" y="148" fill="#64748b" font-size="11">1,371.5µs</text>
<text x="190" y="184" text-anchor="end" fill="#64748b">Gloam (discover)</text>
<rect x="200" y="168" width="169.8" height="12" fill="#94a3b8"/>
<text x="374.8" y="178" fill="#64748b" font-size="11">2,010.2µs</text>
<rect x="200" y="184" width="79.3" height="12" fill="#10b981"/>
<text x="284.3" y="194" fill="#64748b" font-size="11">1,385.3µs</text>
<text x="190" y="230" text-anchor="end" fill="#64748b">GLAD (tycho)</text>
<rect x="200" y="214" width="169.4" height="12" fill="#94a3b8"/>
<text x="374.4" y="224" fill="#64748b" font-size="11">2,006.9µs</text>
<rect x="200" y="230" width="85.0" height="12" fill="#10b981"/>
<text x="290.0" y="240" fill="#64748b" font-size="11">1,418.6µs</text>
<text x="190" y="276" text-anchor="end" fill="#64748b">GLAD (dav1dde)</text>
<rect x="200" y="260" width="310.4" height="12" fill="#94a3b8"/>
<text x="515.4" y="270" fill="#64748b" font-size="11">3,582.9µs</text>
<rect x="200" y="276" width="220.4" height="12" fill="#10b981"/>
<text x="425.4" y="286" fill="#64748b" font-size="11">2,474.7µs</text>
</svg>
