<svg xmlns="http://www.w3.org/2000/svg" viewBox="0 0 800 340" font-family="system-ui, -apple-system, Segoe UI, Roboto, sans-serif" font-size="13">
<text x="400" y="26" text-anchor="middle" font-size="15" font-weight="600" fill="#64748b">Full VK context (libvulkan transient) — macOS</text>
<rect x="200" y="36" width="14" height="12" fill="#94a3b8"/><text x="220" y="46" fill="#64748b">unpatched</text><rect x="310" y="36" width="14" height="12" fill="#10b981"/><text x="330" y="46" fill="#64748b">patched</text>
<line x1="200.0" y1="64" x2="200.0" y2="306" stroke="#cbd5e1" stroke-width="1"/>
<text x="200.0" y="322" text-anchor="middle" fill="#64748b" font-size="11">1,000µs</text>
<line x1="760.0" y1="64" x2="760.0" y2="306" stroke="#cbd5e1" stroke-width="1"/>
<text x="760.0" y="322" text-anchor="middle" fill="#64748b" font-size="11">10,000µs</text>
<text x="190" y="92" text-anchor="end" fill="#64748b">Gloam (enabled-list)</text>
<rect x="200" y="76" width="161.7" height="12" fill="#94a3b8"/>
<text x="366.7" y="86" fill="#64748b" font-size="11">1,944.6µs</text>
<rect x="200" y="92" width="197.0" height="12" fill="#10b981"/>
<text x="402.0" y="102" fill="#64748b" font-size="11">2,247.8µs</text>
<text x="190" y="138" text-anchor="end" fill="#64748b">Volk</text>
<rect x="200" y="122" width="164.7" height="12" fill="#94a3b8"/>
<text x="369.7" y="132" fill="#64748b" font-size="11">1,968.5µs</text>
<rect x="200" y="138" width="198.0" height="12" fill="#10b981"/>
<text x="403.0" y="148" fill="#64748b" font-size="11">2,257.2µs</text>
<text x="190" y="184" text-anchor="end" fill="#64748b">GLAD (tycho)</text>
<rect x="200" y="168" width="187.3" height="12" fill="#94a3b8"/>
<text x="392.3" y="178" fill="#64748b" font-size="11">2,159.8µs</text>
<rect x="200" y="184" width="200.7" height="12" fill="#10b981"/>
<text x="405.7" y="194" fill="#64748b" font-size="11">2,282.5µs</text>
<text x="190" y="230" text-anchor="end" fill="#64748b">Gloam (discover)</text>
<rect x="200" y="214" width="189.2" height="12" fill="#94a3b8"/>
<text x="394.2" y="224" fill="#64748b" font-size="11">2,176.7µs</text>
<rect x="200" y="230" width="200.8" height="12" fill="#10b981"/>
<text x="405.8" y="240" fill="#64748b" font-size="11">2,283.1µs</text>
<text x="190" y="276" text-anchor="end" fill="#64748b">GLAD (dav1dde)</text>
<rect x="200" y="260" width="308.6" height="12" fill="#94a3b8"/>
<text x="513.6" y="270" fill="#64748b" font-size="11">3,556.2µs</text>
<rect x="200" y="276" width="294.2" height="12" fill="#10b981"/>
<text x="499.2" y="286" fill="#64748b" font-size="11">3,352.4µs</text>
</svg>
