<svg xmlns="http://www.w3.org/2000/svg" viewBox="0 0 800 340" font-family="system-ui, -apple-system, Segoe UI, Roboto, sans-serif" font-size="13">
<text x="400" y="26" text-anchor="middle" font-size="15" font-weight="600" fill="#64748b">Load instance functions — macOS</text>
<rect x="200" y="36" width="14" height="12" fill="#94a3b8"/><text x="220" y="46" fill="#64748b">unpatched</text><rect x="310" y="36" width="14" height="12" fill="#10b981"/><text x="330" y="46" fill="#64748b">patched</text>
<line x1="200.0" y1="64" x2="200.0" y2="306" stroke="#cbd5e1" stroke-width="1"/>
<text x="200.0" y="322" text-anchor="middle" fill="#64748b" font-size="11">1µs</text>
<line x1="386.7" y1="64" x2="386.7" y2="306" stroke="#cbd5e1" stroke-width="1"/>
<text x="386.7" y="322" text-anchor="middle" fill="#64748b" font-size="11">10µs</text>
<line x1="573.3" y1="64" x2="573.3" y2="306" stroke="#cbd5e1" stroke-width="1"/>
<text x="573.3" y="322" text-anchor="middle" fill="#64748b" font-size="11">100µs</text>
<line x1="760.0" y1="64" x2="760.0" y2="306" stroke="#cbd5e1" stroke-width="1"/>
<text x="760.0" y="322" text-anchor="middle" fill="#64748b" font-size="11">1,000µs</text>
<text x="190" y="92" text-anchor="end" fill="#64748b">Gloam (enabled-list)</text>
<rect x="200" y="76" width="136.4" height="12" fill="#94a3b8"/>
<text x="341.4" y="86" fill="#64748b" font-size="11">5.4µs</text>
<rect x="200" y="92" width="12.0" height="12" fill="#10b981"/>
<text x="217.0" y="102" fill="#64748b" font-size="11">1.2µs</text>
<text x="190" y="138" text-anchor="end" fill="#64748b">GLAD (tycho)</text>
<rect x="200" y="122" width="253.3" height="12" fill="#94a3b8"/>
<text x="458.3" y="132" fill="#64748b" font-size="11">22.8µs</text>
<rect x="200" y="138" width="81.7" height="12" fill="#10b981"/>
<text x="286.7" y="148" fill="#64748b" font-size="11">2.7µs</text>
<text x="190" y="184" text-anchor="end" fill="#64748b">Volk</text>
<rect x="200" y="168" width="330.4" height="12" fill="#94a3b8"/>
<text x="535.4" y="178" fill="#64748b" font-size="11">58.9µs</text>
<rect x="200" y="184" width="129.8" height="12" fill="#10b981"/>
<text x="334.8" y="194" fill="#64748b" font-size="11">5.0µs</text>
<text x="190" y="230" text-anchor="end" fill="#64748b">Gloam (discover)</text>
<rect x="200" y="214" width="431.0" height="12" fill="#94a3b8"/>
<text x="636.0" y="224" fill="#64748b" font-size="11">203.8µs</text>
<rect x="200" y="230" width="243.1" height="12" fill="#10b981"/>
<text x="448.1" y="240" fill="#64748b" font-size="11">20.1µs</text>
<text x="190" y="276" text-anchor="end" fill="#64748b">GLAD (dav1dde)</text>
<rect x="200" y="260" width="498.4" height="12" fill="#94a3b8"/>
<text x="703.4" y="270" fill="#64748b" font-size="11">468.0µs</text>
<rect x="200" y="276" width="437.2" height="12" fill="#10b981"/>
<text x="642.2" y="286" fill="#64748b" font-size="11">219.8µs</text>
</svg>
